<svg width="134" height="52" viewBox="0 0 134 52" fill="none" xmlns="http://www.w3.org/2000/svg">
<path d="M2.28 22C2.104 22 1.96 21.944 1.848 21.832C1.736 21.72 1.68 21.576 1.68 21.4V5.8C1.68 5.624 1.736 5.48 1.848 5.368C1.96 5.256 2.104 5.2 2.28 5.2H5.376C5.552 5.2 5.696 5.256 5.808 5.368C5.92 5.48 5.976 5.624 5.976 5.8V11.584H7.44L10.992 5.656C11.072 5.528 11.184 5.424 11.328 5.344C11.472 5.248 11.656 5.2 11.88 5.2H15.336C15.496 5.2 15.624 5.256 15.72 5.368C15.816 5.464 15.864 5.576 15.864 5.704C15.864 5.8 15.832 5.896 15.768 5.992L11.304 13.288L16.2 21.184C16.248 21.248 16.272 21.336 16.272 21.448C16.272 21.608 16.216 21.744 16.104 21.856C16.008 21.952 15.88 22 15.72 22H12.168C11.912 22 11.72 21.944 11.592 21.832C11.48 21.72 11.392 21.624 11.328 21.544L7.608 15.424H5.976V21.4C5.976 21.576 5.92 21.72 5.808 21.832C5.696 21.944 5.552 22 5.376 22H2.28ZM19.4441 26.584C19.2681 26.584 19.1161 26.52 18.9881 26.392C18.8761 26.28 18.8201 26.144 18.8201 25.984V24.04C18.8201 23.864 18.8761 23.72 18.9881 23.608C19.1161 23.496 19.2681 23.44 19.4441 23.44H20.2601C20.5641 23.44 20.8121 23.384 21.0041 23.272C21.1961 23.16 21.3641 22.976 21.5081 22.72C21.6681 22.48 21.8361 22.144 22.0121 21.712L26.8121 10.024C26.8601 9.88 26.9401 9.76 27.0521 9.664C27.1641 9.568 27.3241 9.52 27.5321 9.52H30.1001C30.2441 9.52 30.3641 9.576 30.4601 9.688C30.5721 9.784 30.6281 9.896 30.6281 10.024C30.6281 10.056 30.6201 10.104 30.6041 10.168C30.6041 10.216 30.5881 10.272 30.5561 10.336L25.9961 21.328C25.6761 22.112 25.3401 22.824 24.9881 23.464C24.6521 24.104 24.2841 24.656 23.8841 25.12C23.4841 25.6 23.0121 25.96 22.4681 26.2C21.9401 26.456 21.3241 26.584 20.6201 26.584H19.4441ZM22.2761 21.736L17.3561 10.336C17.3081 10.224 17.2841 10.128 17.2841 10.048C17.3161 9.904 17.3801 9.784 17.4761 9.688C17.5721 9.576 17.7001 9.52 17.8601 9.52H20.5481C20.7561 9.52 20.9081 9.576 21.0041 9.688C21.1161 9.784 21.1961 9.896 21.2441 10.024L24.6761 18.808L22.2761 21.736ZM33.0707 26.56C32.8947 26.56 32.7507 26.504 32.6387 26.392C32.5267 26.28 32.4707 26.136 32.4707 25.96V10.12C32.4707 9.944 32.5267 9.8 32.6387 9.688C32.7507 9.576 32.8947 9.52 33.0707 9.52H35.7827C35.9427 9.52 36.0787 9.576 36.1907 9.688C36.3187 9.8 36.3827 9.944 36.3827 10.12V11.008C36.7507 10.512 37.2387 10.104 37.8467 9.784C38.4547 9.448 39.2067 9.28 40.1027 9.28C40.9027 9.28 41.6067 9.408 42.2147 9.664C42.8227 9.904 43.3427 10.264 43.7747 10.744C44.2067 11.224 44.5427 11.808 44.7827 12.496C45.0387 13.184 45.1827 13.976 45.2147 14.872C45.2307 15.192 45.2387 15.488 45.2387 15.76C45.2387 16.032 45.2307 16.328 45.2147 16.648C45.1827 17.512 45.0467 18.288 44.8067 18.976C44.5667 19.664 44.2307 20.248 43.7987 20.728C43.3667 21.208 42.8387 21.584 42.2147 21.856C41.6067 22.112 40.9027 22.24 40.1027 22.24C39.3187 22.24 38.6307 22.104 38.0387 21.832C37.4627 21.544 36.9827 21.144 36.5987 20.632V25.96C36.5987 26.136 36.5427 26.28 36.4307 26.392C36.3187 26.504 36.1747 26.56 35.9987 26.56H33.0707ZM38.8067 19.024C39.3507 19.024 39.7747 18.912 40.0787 18.688C40.3827 18.464 40.5987 18.16 40.7267 17.776C40.8707 17.392 40.9587 16.968 40.9907 16.504C41.0227 16.008 41.0227 15.512 40.9907 15.016C40.9587 14.552 40.8707 14.128 40.7267 13.744C40.5987 13.36 40.3827 13.056 40.0787 12.832C39.7747 12.608 39.3507 12.496 38.8067 12.496C38.2787 12.496 37.8547 12.616 37.5347 12.856C37.2147 13.08 36.9827 13.376 36.8387 13.744C36.6947 14.112 36.6147 14.512 36.5987 14.944C36.5827 15.248 36.5747 15.544 36.5747 15.832C36.5747 16.12 36.5827 16.424 36.5987 16.744C36.6147 17.144 36.7027 17.52 36.8627 17.872C37.0227 18.208 37.2627 18.488 37.5827 18.712C37.9027 18.92 38.3107 19.024 38.8067 19.024ZM53.3473 22.24C52.1633 22.24 51.1153 22.024 50.2033 21.592C49.2913 21.16 48.5633 20.536 48.0193 19.72C47.4913 18.888 47.2033 17.896 47.1553 16.744C47.1393 16.488 47.1313 16.168 47.1313 15.784C47.1313 15.384 47.1393 15.056 47.1553 14.8C47.2033 13.632 47.4913 12.64 48.0193 11.824C48.5473 10.992 49.2673 10.36 50.1793 9.928C51.1073 9.496 52.1633 9.28 53.3473 9.28C54.4513 9.28 55.3953 9.44 56.1793 9.76C56.9633 10.064 57.6033 10.448 58.0993 10.912C58.5953 11.376 58.9633 11.856 59.2033 12.352C59.4593 12.832 59.5953 13.256 59.6113 13.624C59.6273 13.784 59.5713 13.928 59.4433 14.056C59.3153 14.168 59.1713 14.224 59.0113 14.224H55.9633C55.7873 14.224 55.6513 14.184 55.5553 14.104C55.4593 14.024 55.3713 13.904 55.2913 13.744C55.0993 13.248 54.8513 12.896 54.5473 12.688C54.2593 12.48 53.8833 12.376 53.4193 12.376C52.7793 12.376 52.2833 12.584 51.9313 13C51.5953 13.416 51.4113 14.056 51.3793 14.92C51.3633 15.56 51.3633 16.128 51.3793 16.624C51.4113 17.504 51.5953 18.144 51.9313 18.544C52.2833 18.944 52.7793 19.144 53.4193 19.144C53.9153 19.144 54.3073 19.04 54.5953 18.832C54.8833 18.624 55.1153 18.272 55.2913 17.776C55.3713 17.616 55.4593 17.496 55.5553 17.416C55.6513 17.336 55.7873 17.296 55.9633 17.296H59.0113C59.1713 17.296 59.3153 17.36 59.4433 17.488C59.5713 17.6 59.6273 17.736 59.6113 17.896C59.5953 18.168 59.5153 18.488 59.3713 18.856C59.2273 19.208 59.0033 19.584 58.6993 19.984C58.3953 20.384 57.9953 20.76 57.4993 21.112C57.0193 21.448 56.4353 21.72 55.7473 21.928C55.0593 22.136 54.2593 22.24 53.3473 22.24ZM67.5276 22.24C65.6396 22.24 64.1356 21.728 63.0156 20.704C61.8956 19.68 61.3116 18.16 61.2636 16.144C61.2636 16.032 61.2636 15.888 61.2636 15.712C61.2636 15.536 61.2636 15.4 61.2636 15.304C61.3116 14.04 61.5916 12.96 62.1036 12.064C62.6316 11.152 63.3516 10.464 64.2636 10C65.1916 9.52 66.2716 9.28 67.5036 9.28C68.9116 9.28 70.0716 9.56 70.9836 10.12C71.9116 10.68 72.6076 11.44 73.0716 12.4C73.5356 13.36 73.7676 14.456 73.7676 15.688V16.264C73.7676 16.44 73.7036 16.584 73.5756 16.696C73.4636 16.808 73.3276 16.864 73.1676 16.864H65.4876C65.4876 16.88 65.4876 16.904 65.4876 16.936C65.4876 16.968 65.4876 17 65.4876 17.032C65.5036 17.496 65.5836 17.92 65.7276 18.304C65.8716 18.688 66.0956 18.992 66.3996 19.216C66.7036 19.44 67.0716 19.552 67.5036 19.552C67.8236 19.552 68.0876 19.504 68.2956 19.408C68.5196 19.296 68.7036 19.176 68.8476 19.048C68.9916 18.904 69.1036 18.784 69.1836 18.688C69.3276 18.528 69.4396 18.432 69.5196 18.4C69.6156 18.352 69.7596 18.328 69.9516 18.328H72.9276C73.0876 18.328 73.2156 18.376 73.3116 18.472C73.4236 18.552 73.4716 18.672 73.4556 18.832C73.4396 19.104 73.3036 19.432 73.0476 19.816C72.7916 20.2 72.4156 20.584 71.9196 20.968C71.4396 21.336 70.8316 21.64 70.0956 21.88C69.3596 22.12 68.5036 22.24 67.5276 22.24ZM65.4876 14.488H69.5436V14.44C69.5436 13.928 69.4636 13.48 69.3036 13.096C69.1596 12.712 68.9276 12.416 68.6076 12.208C68.3036 12 67.9356 11.896 67.5036 11.896C67.0716 11.896 66.7036 12 66.3996 12.208C66.1116 12.416 65.8876 12.712 65.7276 13.096C65.5676 13.48 65.4876 13.928 65.4876 14.44V14.488ZM81.7536 22.24C80.5696 22.24 79.5216 22.024 78.6096 21.592C77.6976 21.16 76.9696 20.536 76.4256 19.72C75.8976 18.888 75.6096 17.896 75.5616 16.744C75.5456 16.488 75.5376 16.168 75.5376 15.784C75.5376 15.384 75.5456 15.056 75.5616 14.8C75.6096 13.632 75.8976 12.64 76.4256 11.824C76.9536 10.992 77.6736 10.36 78.5856 9.928C79.5136 9.496 80.5696 9.28 81.7536 9.28C82.8576 9.28 83.8016 9.44 84.5856 9.76C85.3696 10.064 86.0096 10.448 86.5056 10.912C87.0016 11.376 87.3696 11.856 87.6096 12.352C87.8656 12.832 88.0016 13.256 88.0176 13.624C88.0336 13.784 87.9776 13.928 87.8496 14.056C87.7216 14.168 87.5776 14.224 87.4176 14.224H84.3696C84.1936 14.224 84.0576 14.184 83.9616 14.104C83.8656 14.024 83.7776 13.904 83.6976 13.744C83.5056 13.248 83.2576 12.896 82.9536 12.688C82.6656 12.48 82.2896 12.376 81.8256 12.376C81.1856 12.376 80.6896 12.584 80.3376 13C80.0016 13.416 79.8176 14.056 79.7856 14.92C79.7696 15.56 79.7696 16.128 79.7856 16.624C79.8176 17.504 80.0016 18.144 80.3376 18.544C80.6896 18.944 81.1856 19.144 81.8256 19.144C82.3216 19.144 82.7136 19.04 83.0016 18.832C83.2896 18.624 83.5216 18.272 83.6976 17.776C83.7776 17.616 83.8656 17.496 83.9616 17.416C84.0576 17.336 84.1936 17.296 84.3696 17.296H87.4176C87.5776 17.296 87.7216 17.36 87.8496 17.488C87.9776 17.6 88.0336 17.736 88.0176 17.896C88.0016 18.168 87.9216 18.488 87.7776 18.856C87.6336 19.208 87.4096 19.584 87.1056 19.984C86.8016 20.384 86.4016 20.76 85.9056 21.112C85.4256 21.448 84.8416 21.72 84.1536 21.928C83.4656 22.136 82.6656 22.24 81.7536 22.24ZM94.7338 22C94.5578 22 94.4138 21.944 94.3018 21.832C94.1898 21.72 94.1338 21.576 94.1338 21.4V8.968H89.8618C89.6858 8.968 89.5418 8.912 89.4298 8.8C89.3178 8.672 89.2618 8.528 89.2618 8.368V5.8C89.2618 5.624 89.3178 5.48 89.4298 5.368C89.5418 5.256 89.6858 5.2 89.8618 5.2H102.774C102.95 5.2 103.094 5.256 103.206 5.368C103.318 5.48 103.374 5.624 103.374 5.8V8.368C103.374 8.528 103.318 8.672 103.206 8.8C103.094 8.912 102.95 8.968 102.774 8.968H98.5018V21.4C98.5018 21.576 98.4458 21.72 98.3338 21.832C98.2218 21.944 98.0778 22 97.9018 22H94.7338ZM111.195 22.24C109.851 22.24 108.715 22.024 107.787 21.592C106.875 21.16 106.171 20.544 105.675 19.744C105.195 18.928 104.923 17.96 104.859 16.84C104.843 16.52 104.835 16.16 104.835 15.76C104.835 15.344 104.843 14.984 104.859 14.68C104.923 13.544 105.211 12.576 105.723 11.776C106.235 10.976 106.947 10.36 107.859 9.928C108.787 9.496 109.899 9.28 111.195 9.28C112.507 9.28 113.619 9.496 114.531 9.928C115.459 10.36 116.179 10.976 116.691 11.776C117.203 12.576 117.491 13.544 117.555 14.68C117.571 14.984 117.579 15.344 117.579 15.76C117.579 16.16 117.571 16.52 117.555 16.84C117.491 17.96 117.211 18.928 116.715 19.744C116.235 20.544 115.531 21.16 114.603 21.592C113.691 22.024 112.555 22.24 111.195 22.24ZM111.195 19.312C111.915 19.312 112.435 19.096 112.755 18.664C113.091 18.232 113.283 17.584 113.331 16.72C113.347 16.48 113.355 16.16 113.355 15.76C113.355 15.36 113.347 15.04 113.331 14.8C113.283 13.952 113.091 13.312 112.755 12.88C112.435 12.432 111.915 12.208 111.195 12.208C110.491 12.208 109.971 12.432 109.635 12.88C109.299 13.312 109.115 13.952 109.083 14.8C109.067 15.04 109.059 15.36 109.059 15.76C109.059 16.16 109.067 16.48 109.083 16.72C109.115 17.584 109.299 18.232 109.635 18.664C109.971 19.096 110.491 19.312 111.195 19.312ZM120.539 22C120.363 22 120.219 21.944 120.107 21.832C119.995 21.72 119.939 21.576 119.939 21.4V10.12C119.939 9.944 119.995 9.8 120.107 9.688C120.219 9.576 120.363 9.52 120.539 9.52H131.531C131.707 9.52 131.851 9.576 131.963 9.688C132.075 9.8 132.131 9.944 132.131 10.12V21.4C132.131 21.576 132.075 21.72 131.963 21.832C131.851 21.944 131.707 22 131.531 22H128.699C128.539 22 128.395 21.944 128.267 21.832C128.155 21.72 128.099 21.576 128.099 21.4V12.664H123.971V21.4C123.971 21.576 123.907 21.72 123.779 21.832C123.667 21.944 123.531 22 123.371 22H120.539Z" fill="#AFB2BF"/>
<g clip-path="url(#clip0_206_1836)">
<path d="M6.10203 39.6056C6.94646 38.0907 7.36868 37.3333 7.99992 37.3333C8.63116 37.3333 9.05338 38.0907 9.89781 39.6056L10.1163 39.9975C10.3562 40.4279 10.4762 40.6432 10.6633 40.7852C10.8504 40.9272 11.0834 40.9799 11.5493 41.0853L11.9736 41.1813C13.6133 41.5524 14.4332 41.7379 14.6283 42.3651C14.8234 42.9924 14.2644 43.646 13.1465 44.9533L12.8573 45.2915C12.5396 45.6629 12.3808 45.8487 12.3093 46.0785C12.2379 46.3082 12.2619 46.5561 12.3099 47.0517L12.3537 47.5029C12.5227 49.247 12.6072 50.1191 12.0965 50.5068C11.5858 50.8945 10.8181 50.541 9.2828 49.8341L8.8856 49.6512C8.4493 49.4503 8.23115 49.3499 7.99992 49.3499C7.76868 49.3499 7.55054 49.4503 7.11424 49.6512L6.71703 49.8341C5.1817 50.541 4.41404 50.8945 3.90335 50.5068C3.39267 50.1191 3.47717 49.247 3.64618 47.5029L3.68991 47.0517C3.73794 46.5561 3.76195 46.3082 3.69049 46.0785C3.61904 45.8487 3.4602 45.6629 3.14253 45.2915L2.85332 44.9533C1.73542 43.646 1.17647 42.9924 1.37153 42.3651C1.5666 41.7379 2.38649 41.5524 4.02628 41.1813L4.45051 41.0853C4.91649 40.9799 5.14947 40.9272 5.33655 40.7852C5.52362 40.6432 5.6436 40.4279 5.88356 39.9975L6.10203 39.6056Z" fill="#FDF41A" stroke="#FDF41A" stroke-width="1.5"/>
</g>
<g clip-path="url(#clip1_206_1836)">
<path d="M30.102 39.6056C30.9465 38.0907 31.3687 37.3333 31.9999 37.3333C32.6312 37.3333 33.0534 38.0907 33.8978 39.6056L34.1163 39.9975C34.3562 40.4279 34.4762 40.6432 34.6633 40.7852C34.8504 40.9272 35.0834 40.9799 35.5493 41.0853L35.9736 41.1813C37.6133 41.5524 38.4332 41.7379 38.6283 42.3651C38.8234 42.9924 38.2644 43.646 37.1465 44.9533L36.8573 45.2915C36.5396 45.6629 36.3808 45.8487 36.3093 46.0785C36.2379 46.3082 36.2619 46.5561 36.3099 47.0517L36.3537 47.5029C36.5227 49.247 36.6072 50.1191 36.0965 50.5068C35.5858 50.8945 34.8181 50.541 33.2828 49.8341L32.8856 49.6512C32.4493 49.4503 32.2312 49.3499 31.9999 49.3499C31.7687 49.3499 31.5505 49.4503 31.1142 49.6512L30.717 49.8341C29.1817 50.541 28.414 50.8945 27.9034 50.5068C27.3927 50.1191 27.4772 49.247 27.6462 47.5029L27.6899 47.0517C27.7379 46.5561 27.7619 46.3082 27.6905 46.0785C27.619 45.8487 27.4602 45.6629 27.1425 45.2915L26.8533 44.9533C25.7354 43.646 25.1765 42.9924 25.3715 42.3651C25.5666 41.7379 26.3865 41.5524 28.0263 41.1813L28.4505 41.0853C28.9165 40.9799 29.1495 40.9272 29.3365 40.7852C29.5236 40.6432 29.6436 40.4279 29.8836 39.9975L30.102 39.6056Z" fill="#FDF41A" stroke="#FDF41A" stroke-width="1.5"/>
</g>
<g clip-path="url(#clip2_206_1836)">
<path d="M54.102 39.6056C54.9465 38.0907 55.3687 37.3333 55.9999 37.3333C56.6312 37.3333 57.0534 38.0907 57.8978 39.6056L58.1163 39.9975C58.3562 40.4279 58.4762 40.6432 58.6633 40.7852C58.8504 40.9272 59.0834 40.9799 59.5493 41.0853L59.9736 41.1813C61.6133 41.5524 62.4332 41.7379 62.6283 42.3651C62.8234 42.9924 62.2644 43.646 61.1465 44.9533L60.8573 45.2915C60.5396 45.6629 60.3808 45.8487 60.3093 46.0785C60.2379 46.3082 60.2619 46.5561 60.3099 47.0517L60.3537 47.5029C60.5227 49.247 60.6072 50.1191 60.0965 50.5068C59.5858 50.8945 58.8181 50.541 57.2828 49.8341L56.8856 49.6512C56.4493 49.4503 56.2312 49.3499 55.9999 49.3499C55.7687 49.3499 55.5505 49.4503 55.1142 49.6512L54.717 49.8341C53.1817 50.541 52.414 50.8945 51.9034 50.5068C51.3927 50.1191 51.4772 49.247 51.6462 47.5029L51.6899 47.0517C51.7379 46.5561 51.7619 46.3082 51.6905 46.0785C51.619 45.8487 51.4602 45.6629 51.1425 45.2915L50.8533 44.9533C49.7354 43.646 49.1765 42.9924 49.3715 42.3651C49.5666 41.7379 50.3865 41.5524 52.0263 41.1813L52.4505 41.0853C52.9165 40.9799 53.1495 40.9272 53.3365 40.7852C53.5236 40.6432 53.6436 40.4279 53.8836 39.9975L54.102 39.6056Z" fill="#FDF41A" stroke="#FDF41A" stroke-width="1.5"/>
</g>
<g clip-path="url(#clip3_206_1836)">
<path d="M78.102 39.6056C78.9465 38.0907 79.3687 37.3333 79.9999 37.3333C80.6312 37.3333 81.0534 38.0907 81.8978 39.6056L82.1163 39.9975C82.3562 40.4279 82.4762 40.6432 82.6633 40.7852C82.8504 40.9272 83.0834 40.9799 83.5493 41.0853L83.9736 41.1813C85.6133 41.5524 86.4332 41.7379 86.6283 42.3651C86.8234 42.9924 86.2644 43.646 85.1465 44.9533L84.8573 45.2915C84.5396 45.6629 84.3808 45.8487 84.3093 46.0785C84.2379 46.3082 84.2619 46.5561 84.3099 47.0517L84.3537 47.5029C84.5227 49.247 84.6072 50.1191 84.0965 50.5068C83.5858 50.8945 82.8181 50.541 81.2828 49.8341L80.8856 49.6512C80.4493 49.4503 80.2312 49.3499 79.9999 49.3499C79.7687 49.3499 79.5505 49.4503 79.1142 49.6512L78.717 49.8341C77.1817 50.541 76.414 50.8945 75.9034 50.5068C75.3927 50.1191 75.4772 49.247 75.6462 47.5029L75.6899 47.0517C75.7379 46.5561 75.7619 46.3082 75.6905 46.0785C75.619 45.8487 75.4602 45.6629 75.1425 45.2915L74.8533 44.9533C73.7354 43.646 73.1765 42.9924 73.3715 42.3651C73.5666 41.7379 74.3865 41.5524 76.0263 41.1813L76.4505 41.0853C76.9165 40.9799 77.1495 40.9272 77.3365 40.7852C77.5236 40.6432 77.6436 40.4279 77.8836 39.9975L78.102 39.6056Z" fill="#FDF41A" stroke="#FDF41A" stroke-width="1.5"/>
</g>
<g clip-path="url(#clip4_206_1836)">
<path d="M102.102 39.6056C102.946 38.0907 103.369 37.3333 104 37.3333C104.631 37.3333 105.053 38.0907 105.898 39.6056L106.116 39.9975C106.356 40.4279 106.476 40.6432 106.663 40.7852C106.85 40.9272 107.083 40.9799 107.549 41.0853L107.974 41.1813C109.613 41.5524 110.433 41.7379 110.628 42.3651C110.823 42.9924 110.264 43.646 109.147 44.9533L108.857 45.2915C108.54 45.6629 108.381 45.8487 108.309 46.0785C108.238 46.3082 108.262 46.5561 108.31 47.0517L108.354 47.5029C108.523 49.247 108.607 50.1191 108.096 50.5068C107.586 50.8945 106.818 50.541 105.283 49.8341L104.886 49.6512C104.449 49.4503 104.231 49.3499 104 49.3499C103.769 49.3499 103.551 49.4503 103.114 49.6512L102.717 49.8341C101.182 50.541 100.414 50.8945 99.9034 50.5068C99.3927 50.1191 99.4772 49.247 99.6462 47.5029L99.6899 47.0517C99.7379 46.5561 99.7619 46.3082 99.6905 46.0785C99.619 45.8487 99.4602 45.6629 99.1425 45.2915L98.8533 44.9533C97.7354 43.646 97.1765 42.9924 97.3715 42.3651C97.5666 41.7379 98.3865 41.5524 100.026 41.1813L100.451 41.0853C100.916 40.9799 101.149 40.9272 101.337 40.7852C101.524 40.6432 101.644 40.4279 101.884 39.9975L102.102 39.6056Z" fill="#FDF41A" stroke="#FDF41A" stroke-width="1.5"/>
</g>
<defs>
<clipPath id="clip0_206_1836">
<rect y="36" width="16" height="16" rx="5" fill="white"/>
</clipPath>
<clipPath id="clip1_206_1836">
<rect x="24" y="36" width="16" height="16" rx="5" fill="white"/>
</clipPath>
<clipPath id="clip2_206_1836">
<rect x="48" y="36" width="16" height="16" rx="5" fill="white"/>
</clipPath>
<clipPath id="clip3_206_1836">
<rect x="72" y="36" width="16" height="16" rx="5" fill="white"/>
</clipPath>
<clipPath id="clip4_206_1836">
<rect x="96" y="36" width="16" height="16" rx="5" fill="white"/>
</clipPath>
</defs>
</svg>
