<svg width="155" height="37" viewBox="0 0 155 37" fill="none" xmlns="http://www.w3.org/2000/svg">
<path d="M39.7056 27.5682V3.07227H54.1838V6.1434H42.7036V13.675H53.0138V16.7461H42.7036V24.424H54.9881V27.4951H39.7056V27.5682Z" fill="white"/>
<path d="M70.1974 27.5667L65.2251 21.0588L60.2528 27.5667H56.7429L63.5433 18.8651L56.3773 9.87109H60.3259L65.2251 16.5983L70.1974 9.87109H74.0729L67.2725 18.8651L73.7073 27.5667H70.1974Z" fill="white"/>
<path d="M78.5337 24.9355V37.0007H75.5356V18.9395C75.5356 14.3328 79.0455 9.43359 84.5297 9.43359C90.087 9.43359 94.255 12.9435 94.255 18.7201C94.255 24.3505 90.0139 28.226 85.1878 28.226C82.8479 28.226 79.7036 27.2023 78.5337 24.9355ZM91.1107 18.7201C91.1107 14.7715 88.5514 12.4316 84.0178 12.651C81.8242 12.7241 78.4605 14.3328 78.753 19.9632C78.8261 21.7913 80.7273 25.228 84.8953 25.228C88.4783 25.228 91.1107 23.1806 91.1107 18.7201Z" fill="white"/>
<path d="M96.8143 27.567V9.87147H99.8123V11.7726C101.275 10.0908 103.542 9.50586 105.955 9.50586V12.7232C105.589 12.6501 102.006 12.2114 99.8123 16.8912V27.6402H96.8143V27.567Z" fill="white"/>
<path d="M106.759 18.7201C106.759 13.6016 110.415 9.43359 115.46 9.43359C121.749 9.43359 124.089 13.6016 124.089 18.9395V20.4019H110.049C110.269 23.7656 113.267 25.5205 116.045 25.4474C118.093 25.3742 119.482 24.7893 120.945 23.3268L122.919 25.3742C121.091 27.1292 118.751 28.2991 115.899 28.2991C110.561 28.226 106.759 24.2774 106.759 18.7201ZM115.241 12.4316C112.389 12.4316 110.196 14.9178 110.049 17.6233H120.945C120.945 14.9909 119.043 12.4316 115.241 12.4316Z" fill="white"/>
<path d="M125.624 25.084L127.818 23.1097C127.745 23.1097 128.915 24.2796 129.061 24.3527C129.573 24.7915 130.085 25.084 130.743 25.2302C132.644 25.7421 136.081 25.5958 136.373 22.9634C136.519 21.501 135.423 20.6966 134.179 20.1848C132.571 19.5998 130.816 19.3804 129.207 18.6492C127.379 17.8449 126.209 16.4555 126.209 14.4081C126.209 9.07018 133.814 8.19271 137.251 10.6789C137.397 10.8251 139.079 12.3607 139.006 12.3607L136.812 14.1156C135.715 12.7994 134.691 12.1413 132.351 12.1413C131.181 12.1413 129.573 12.6532 129.28 13.8963C128.842 15.6512 130.816 16.3093 132.132 16.6749C133.887 17.1136 135.788 17.4061 137.324 18.3567C139.444 19.6729 139.956 22.5247 139.152 24.7183C138.274 27.1314 135.642 28.082 133.302 28.1551C130.523 28.3013 128.11 27.4239 126.136 25.4496C125.99 25.4496 125.624 25.084 125.624 25.084Z" fill="white"/>
<path d="M141.053 25.084L143.247 23.1097C143.174 23.1097 144.344 24.2796 144.49 24.3527C145.002 24.7915 145.514 25.084 146.172 25.2302C148.073 25.7421 151.51 25.5958 151.802 22.9634C151.948 21.501 150.852 20.6966 149.609 20.1848C148 19.5998 146.245 19.3804 144.636 18.6492C142.808 17.8449 141.638 16.4555 141.638 14.4081C141.638 9.07018 149.243 8.19271 152.68 10.6789C152.826 10.8251 154.508 12.3607 154.435 12.3607L152.241 14.1156C151.144 12.7994 150.12 12.1413 147.781 12.1413C146.611 12.1413 145.002 12.6532 144.709 13.8963C144.271 15.6512 146.245 16.3093 147.561 16.6749C149.316 17.1136 151.217 17.4061 152.753 18.3567C154.873 19.6729 155.385 22.5247 154.581 24.7183C153.703 27.1314 151.071 28.082 148.731 28.1551C145.952 28.3013 143.539 27.4239 141.565 25.4496C141.419 25.4496 141.053 25.084 141.053 25.084Z" fill="white"/>
<path d="M19.3774 27.5672L17.1837 21.7175H5.33793L3.14426 27.5672H0L9.50589 3.07129H12.9426L22.3754 27.5672H19.3774ZM11.1146 6.58116L6.65413 18.7194H15.9407L11.1146 6.58116Z" fill="white"/>
<path d="M24.3494 27.5672V3.07129H27.4206V27.5672H24.3494Z" fill="white"/>
<path d="M32.0276 27.5678V10.2378H35.0988V27.5678H32.0276Z" fill="white"/>
<path d="M38.0235 4.60669V4.31421C35.6836 4.24109 33.7824 2.33991 33.7093 0H33.2706C33.1974 2.33991 31.2963 4.24109 28.9564 4.31421V4.60669C31.2963 4.67982 33.1974 6.581 33.2706 8.92092H33.7093C33.7824 6.581 35.6836 4.67982 38.0235 4.60669Z" fill="white"/>
</svg>
