<svg width="264" height="68" viewBox="0 0 264 68" fill="none" xmlns="http://www.w3.org/2000/svg">
<path d="M5.03059 18.7767L0.065979 0.474853H3.32261L7.1371 14.5316L11.2252 0.473633L14.2609 0.474853L18.3634 14.6063L22.195 0.47831L25.4515 0.473633L20.4848 18.7734L16.71 18.7696L12.7443 5.10202L8.77489 18.7731L5.03059 18.7767Z" fill="white"/>
<path d="M27.6975 0.484375H30.7975V18.7649H27.6975V0.484375Z" fill="white"/>
<path d="M37.4252 15.8973H44.9721V18.7649H34.3893V0.484375H37.4252V15.8973Z" fill="white"/>
<path d="M54.5078 0.505452C57.052 0.505452 59.1686 1.39104 60.8362 3.14106C62.5251 4.89108 63.3804 7.06285 63.3804 9.63516C63.3804 12.1865 62.5251 14.3582 60.8362 16.1293C59.1686 17.8794 57.052 18.7649 54.5078 18.7649H47.2174V0.484375H54.5078V0.505452ZM54.5078 15.9184C56.2609 15.9184 57.6933 15.3281 58.7623 14.1473C59.8741 12.9666 60.4299 11.4485 60.4299 9.65624C60.4299 7.82191 59.8741 6.34596 58.7623 5.16522C57.672 3.98442 56.2396 3.39405 54.5078 3.39405H50.2747V15.9184H54.5078Z" fill="white"/>
<path d="M79.7353 13.5427C79.7353 15.0404 79.2013 16.2851 78.1108 17.2766C77.0203 18.2681 75.7374 18.7744 74.1556 18.7744H66.2236V0.484375H73.5782C75.0963 0.484375 76.3785 0.990704 77.4263 1.93999C78.4958 2.91036 79.0088 4.11285 79.0088 5.54732C79.0088 7.15062 78.367 8.37419 77.1274 9.28132C78.7519 10.1252 79.7353 11.644 79.7353 13.5427ZM69.2807 3.31124V8.12106H73.5992C74.9465 8.12106 75.9726 7.06624 75.9726 5.71615C75.9726 4.36598 74.9465 3.31124 73.5992 3.31124H69.2807ZM74.1766 15.9476C75.5876 15.9476 76.6998 14.8295 76.6998 13.395C76.6998 11.9604 75.5876 10.8424 74.1766 10.8424H69.2807V15.9686H74.1766V15.9476Z" fill="white"/>
<path d="M85.6574 15.9053H93.8673V18.7744H82.6218V0.484375H93.7392V3.35339H85.6574V8.09991H93.0764V10.9478H85.6574V15.9053Z" fill="white"/>
<path d="M107.166 18.7744L103.232 12.1081H99.6398V18.7744H96.6042V0.484375H104.023C105.691 0.484375 107.102 1.05394 108.235 2.2142C109.389 3.33231 109.988 4.72463 109.988 6.37008C109.988 8.69062 108.513 10.8212 106.311 11.6651L110.522 18.7744H107.166ZM99.6398 3.31117V9.42893H104.002C105.626 9.42893 106.909 8.07883 106.909 6.37008C106.909 4.68241 105.605 3.31117 104.002 3.31117H99.6398Z" fill="white"/>
<path d="M123.392 18.7746L119.48 12.1049H115.888V18.7746H112.852V0.475098H120.271C121.939 0.475098 123.35 1.045 124.483 2.20587C125.637 3.32453 126.236 4.71752 126.236 6.36386C126.236 8.68561 124.761 10.8174 122.559 11.6616L126.77 18.7746H123.392ZM115.888 3.30338V9.42433H120.25C121.874 9.42433 123.157 8.07349 123.157 6.36386C123.157 4.67537 121.853 3.30338 120.25 3.30338H115.888Z" fill="white"/>
<path d="M128.994 0.478027H132.03V18.7755H128.994V0.478027Z" fill="white"/>
<path d="M138.658 15.9053H146.868V18.7743H135.622V0.484375H146.739V3.35339H138.658V8.09991H146.076V10.9478H138.658V15.9053Z" fill="white"/>
<path d="M148.984 14.6106L151.613 13.0925C152.362 15.1589 153.88 16.1709 156.21 16.1709C158.519 16.1709 159.652 15.201 159.652 13.7673C159.652 13.0082 159.331 12.46 158.733 12.0805C158.134 11.6799 157.022 11.2371 155.441 10.7732C153.666 10.2461 152.789 9.90872 151.549 9.10751C150.352 8.26415 149.753 7.06227 149.753 5.4177C149.753 3.79414 150.331 2.5291 151.506 1.58028C152.661 0.61032 154.072 0.146484 155.718 0.146484C158.69 0.146484 160.978 1.66459 162.175 4.17367L159.609 5.62854C158.839 3.94175 157.535 3.07724 155.718 3.07724C153.943 3.07724 152.81 3.96283 152.81 5.3544C152.81 6.70389 153.708 7.33641 156.552 8.20085C157.258 8.43283 157.771 8.60152 158.091 8.72798C158.433 8.83344 158.882 9.0232 159.459 9.25512C160.059 9.48704 160.529 9.76118 160.807 9.99309C161.79 10.7521 162.837 11.9961 162.709 13.7462C162.709 15.3908 162.111 16.7191 160.892 17.689C159.695 18.659 158.113 19.1228 156.146 19.1228C152.554 19.1017 149.946 17.4149 148.984 14.6106Z" fill="white"/>
<g clip-path="url(#clip0_1_1512)">
<path d="M189.284 15.1697C191.414 14.8996 193.135 13.1789 193.406 11.047C193.501 10.3193 193.428 9.57962 193.191 8.88491C192.955 8.19019 192.562 7.55905 192.044 7.04018C191.525 6.5213 190.894 6.12857 190.199 5.89227C189.504 5.65598 188.764 5.58244 188.037 5.67734C185.905 5.94913 184.184 7.66993 183.914 9.80011C183.819 10.5277 183.893 11.2675 184.129 11.9622C184.365 12.6569 184.758 13.288 185.277 13.8069C185.796 14.3258 186.427 14.7185 187.122 14.9548C187.816 15.1911 188.556 15.2646 189.284 15.1697ZM189.574 1.4985C191.625 1.7144 193.54 2.6278 194.998 4.086C196.456 5.54419 197.369 7.45877 197.585 9.50963C198.148 15.1833 193.418 19.9126 187.743 19.3503C185.692 19.134 183.778 18.2204 182.32 16.7623C180.862 15.3041 179.949 13.3897 179.733 11.3391C179.171 5.66544 183.9 0.936228 189.574 1.4985ZM202.399 1.85353H215.532C216.032 1.85353 216.314 2.4243 216.013 2.8218L206.926 14.8096H214.046C215.344 14.8096 216.365 15.9902 216.096 17.3356C215.899 18.3226 214.973 18.9952 213.968 18.9952H199.705C199.211 18.9952 198.931 18.4296 199.228 18.0372L208.321 6.03916H202.478C201.472 6.03916 200.546 5.36477 200.349 4.37952C200.079 3.03414 201.102 1.85353 202.399 1.85353ZM259.393 1.9011C260.748 1.61571 261.941 2.64174 261.941 3.94635V18.3905C261.941 18.895 261.358 19.1753 260.964 18.8627L249.635 9.87486V16.9058C249.635 18.2104 248.443 19.2365 247.087 18.9511C246.116 18.7472 245.45 17.8418 245.45 16.8498V2.45658C245.45 1.95206 246.033 1.67177 246.427 1.98433L257.757 10.9722V4.0024C257.757 3.01036 258.425 2.10664 259.395 1.9011H259.393ZM229.895 1.45264C236.831 1.45264 242.453 5.46839 242.453 10.4218C242.453 15.3753 236.831 19.391 229.895 19.391C222.959 19.391 217.336 15.3753 217.336 10.4218C217.336 5.46839 222.959 1.45264 229.895 1.45264ZM229.895 5.63827C225.103 5.63827 221.522 8.16425 221.522 10.4218C221.522 12.6794 225.103 15.2054 229.895 15.2054C234.687 15.2054 238.268 12.6811 238.268 10.4218C238.268 8.16255 234.687 5.63827 229.895 5.63827Z" fill="white"/>
</g>
<path fill-rule="evenodd" clip-rule="evenodd" d="M25.8421 55.6053C23.7253 60.2968 19.0121 63.5501 13.5173 63.5501C8.86977 63.5501 4.73393 61.2016 2.29662 57.6179L6.97804 51.4177L6.06794 57.8221L11.023 59.5412L17.0566 49.9008C16.7869 51.6873 16.3487 55.8334 20.2925 57.1143C22.2412 57.7073 24.1134 57.0127 25.8421 55.6053ZM26.7881 47.4453C24.8465 50.3753 22.9753 52.4472 21.9779 52.193C20.2884 51.7623 21.757 46.4479 22.736 42.9054C22.7531 42.8434 22.7701 42.782 22.7869 42.7211V42.62L17.2926 40.7324L10.7196 51.4514L11.6297 45.5863L6.87692 43.9346L0.231161 52.6325C0.0721434 51.7917 -0.0074624 50.9227 0.000550367 50.0333C0.000550367 42.5503 6.03421 36.5166 13.5173 36.5166C20.1149 36.5166 25.5858 41.2068 26.7881 47.4453Z" fill="white"/>
<path d="M41.4271 59.9453H44.3933L48.5394 44.5409V59.9453H51.8764V39.5859H47.2922L43.1461 54.5184L39.0001 39.5859H34.3148V59.9453H37.1799V44.5409L41.4271 59.9453ZM65.8313 49.8667C65.8313 46.26 64.0448 44.9117 60.337 44.9117C58.0112 44.9117 56.191 45.6196 55.1123 46.26V49.1252C56.0224 48.4173 58.0786 47.6758 59.8988 47.6758C61.6179 47.6758 62.3257 48.3162 62.3257 49.833V50.642H61.7864C56.4606 50.642 54.0337 52.4285 54.0337 55.4285C54.0337 58.4285 55.8202 60.1138 58.5505 60.1138C60.6066 60.1138 61.5168 59.4734 62.1572 58.7655H62.3257C62.3257 59.1363 62.4943 59.6756 62.5954 59.9453H66.0336C65.9324 58.7655 65.865 57.5184 65.865 56.3386C65.8313 56.3386 65.8313 49.8667 65.8313 49.8667ZM62.3257 56.4397C61.8875 57.0802 61.0786 57.6195 59.7977 57.6195C58.3482 57.6195 57.6404 56.7094 57.6404 55.4622C57.6404 53.7431 58.8201 53.1364 61.8875 53.1364H62.4269V56.4734H62.3257V56.4397ZM71.865 45.1814H68.629V64.1925H72.1346V58.2599C73.0447 59.6082 74.2919 60.2487 75.8425 60.2487C79.2806 60.2487 81.6065 57.5521 81.6065 52.5971C81.6065 47.642 79.3481 44.9454 76.011 44.9454C74.393 44.9454 73.0447 45.6533 72.0335 47.1027C72.0672 47.069 71.865 45.1814 71.865 45.1814ZM74.8649 57.5184C73.0784 57.5184 72.0672 56.0015 72.0672 52.6645C72.0672 49.2263 73.0447 47.7095 75.0335 47.7095C76.9211 47.7095 77.8986 49.2263 77.8986 52.5633C77.8986 56.0015 76.9211 57.5184 74.8649 57.5184ZM92.494 59.9453H96.4715L90.876 52.024L95.831 45.1814H92.3255L87.3704 52.024V45.1814H83.8649V59.9453H87.3704V52.7319L92.494 59.9453ZM108.168 58.9678V56.1026C107.089 56.8105 105.303 57.4509 103.584 57.4509C101.056 57.4509 100.078 56.2712 99.876 53.7431H108.235V51.8555C108.235 46.7319 105.977 44.8443 102.471 44.8443C98.2243 44.8443 96.1681 48.0802 96.1681 52.5971C96.1681 57.7206 98.6962 60.2487 103.112 60.2487C105.573 60.215 107.19 59.6756 108.168 58.9678ZM102.505 47.7095C104.224 47.7095 104.764 49.1589 104.764 50.9454V51.215H99.876C99.9771 48.8892 100.887 47.7095 102.505 47.7095ZM120.775 47.9791V45.1814H109.078V47.9791H113.224V59.9453H116.73V47.9791H120.775Z" fill="white"/>
<path d="M171.345 59.8982V40.5298H182.792V42.9581H173.715V48.9132H181.867V51.3414H173.715V57.4121H183.428V59.8404H171.345V59.8982Z" fill="white"/>
<path d="M195.454 59.8963L191.523 54.7507L187.591 59.8963H184.816L190.193 53.0162L184.527 45.9048H187.649L191.523 51.2239L195.454 45.9048H198.518L193.141 53.0162L198.229 59.8963H195.454Z" fill="white"/>
<path d="M202.046 57.8171V67.3568H199.675V53.0762C199.675 49.4338 202.45 45.5601 206.787 45.5601C211.181 45.5601 214.476 48.3352 214.476 52.9027C214.476 57.3546 211.123 60.4189 207.307 60.4189C205.457 60.4189 202.971 59.6094 202.046 57.8171ZM211.99 52.9027C211.99 49.7806 209.966 47.9305 206.382 48.104C204.647 48.1618 201.988 49.4337 202.219 53.8856C202.277 55.331 203.78 58.0484 207.076 58.0484C209.909 58.0484 211.99 56.4295 211.99 52.9027Z" fill="white"/>
<path d="M216.5 59.8973V45.9058H218.87V47.409C220.027 46.0792 221.819 45.6167 223.727 45.6167V48.1606C223.438 48.1028 220.605 47.7559 218.87 51.4561V59.9551H216.5V59.8973Z" fill="white"/>
<path d="M224.363 52.9027C224.363 48.8556 227.253 45.5601 231.243 45.5601C236.215 45.5601 238.065 48.8556 238.065 53.0762V54.2325H226.964C227.138 56.8921 229.508 58.2796 231.705 58.2218C233.324 58.164 234.423 57.7015 235.579 56.5452L237.14 58.164C235.695 59.5516 233.845 60.4767 231.59 60.4767C227.369 60.4188 224.363 57.2968 224.363 52.9027ZM231.069 47.9305C228.815 47.9305 227.08 49.8963 226.964 52.0355H235.579C235.579 49.9541 234.076 47.9305 231.069 47.9305Z" fill="white"/>
<path d="M239.279 57.9349L241.013 56.3739C240.956 56.3739 241.881 57.2989 241.996 57.3567C242.401 57.7036 242.806 57.9349 243.326 58.0505C244.829 58.4552 247.547 58.3396 247.778 56.2582C247.894 55.1019 247.026 54.4659 246.043 54.0612C244.771 53.5987 243.384 53.4252 242.112 52.8471C240.667 52.2111 239.741 51.1126 239.741 49.4937C239.741 45.2731 245.754 44.5793 248.472 46.5451C248.587 46.6607 249.917 47.8749 249.859 47.8749L248.125 49.2624C247.258 48.2218 246.448 47.7014 244.598 47.7014C243.673 47.7014 242.401 48.1061 242.17 49.089C241.823 50.4766 243.384 50.9969 244.425 51.286C245.812 51.6329 247.315 51.8642 248.53 52.6158C250.206 53.6565 250.611 55.9113 249.975 57.6458C249.281 59.5538 247.2 60.3054 245.35 60.3632C243.153 60.4788 241.245 59.785 239.684 58.224C239.568 58.224 239.279 57.9349 239.279 57.9349Z" fill="white"/>
<path d="M251.479 57.9349L253.213 56.3739C253.155 56.3739 254.08 57.2989 254.196 57.3567C254.601 57.7036 255.005 57.9349 255.526 58.0505C257.029 58.4552 259.746 58.3396 259.978 56.2582C260.093 55.1019 259.226 54.4659 258.243 54.0612C256.971 53.5987 255.584 53.4252 254.312 52.8471C252.866 52.2111 251.941 51.1126 251.941 49.4937C251.941 45.2731 257.954 44.5793 260.671 46.5451C260.787 46.6607 262.117 47.8749 262.059 47.8749L260.325 49.2624C259.457 48.2218 258.648 47.7014 256.798 47.7014C255.873 47.7014 254.601 48.1061 254.369 49.089C254.023 50.4766 255.584 50.9969 256.624 51.286C258.012 51.6329 259.515 51.8642 260.729 52.6158C262.406 53.6565 262.811 55.9113 262.175 57.6458C261.481 59.5538 259.399 60.3054 257.549 60.3632C255.352 60.4788 253.444 59.785 251.883 58.224C251.768 58.224 251.479 57.9349 251.479 57.9349Z" fill="white"/>
<path d="M155.272 59.8978L153.537 55.2725H144.171L142.437 59.8978H139.95L147.467 40.5293H150.184L157.642 59.8978H155.272ZM148.739 43.3045L145.212 52.902H152.554L148.739 43.3045Z" fill="white"/>
<path d="M159.203 59.8978V40.5293H161.631V59.8978H159.203Z" fill="white"/>
<path d="M165.274 59.9007V46.1982H167.702V59.9007H165.274Z" fill="white"/>
<path d="M170.015 41.7445V41.5132C168.165 41.4554 166.662 39.9522 166.604 38.1021H166.257C166.199 39.9522 164.696 41.4554 162.846 41.5132V41.7445C164.696 41.8023 166.199 43.3055 166.257 45.1556H166.604C166.662 43.3055 168.165 41.8023 170.015 41.7445Z" fill="white"/>
<defs>
<clipPath id="clip0_1_1512">
<rect width="86.8879" height="18.9763" fill="white" transform="translate(177.112 0.937012)"/>
</clipPath>
</defs>
</svg>
