<svg width="153" height="35" viewBox="0 0 153 35" fill="none" xmlns="http://www.w3.org/2000/svg">
<path fill-rule="evenodd" clip-rule="evenodd" d="M32.6838 24.1411C30.0069 30.0752 24.0456 34.1901 17.0958 34.1901C11.2178 34.1901 5.98694 31.2198 2.90442 26.6872L8.82545 18.8453L7.67441 26.9452L13.9412 29.1193L21.5722 16.9269C21.2311 19.1863 20.6769 24.4299 25.6647 26.0499C28.1294 26.8 30.4973 25.9213 32.6838 24.1411ZM33.8798 13.8215C31.4242 17.527 29.0577 20.1473 27.7963 19.8258C25.6595 19.2811 27.5169 12.5598 28.755 8.07947C28.7767 8.00109 28.7982 7.92339 28.8194 7.84643V7.71853L21.8706 5.33119L13.5575 18.8879L14.7085 11.4701L8.69756 9.38115L0.292274 20.3818C0.0912143 19.3186 -0.00943655 18.2198 0.000696068 17.0951C0.000696068 7.63096 7.63167 0 17.0958 0C25.4398 0 32.359 5.93163 33.8798 13.8215Z" fill="white"/>
<path d="M52.3942 29.6296H56.1457L61.3893 10.1471V29.6296H65.6098V3.88037H59.812L54.5683 22.766L49.3247 3.88037H43.399V29.6296H47.0226V10.1471L52.3942 29.6296ZM83.2591 16.8829C83.2591 12.3213 80.9996 10.6161 76.3102 10.6161C73.3687 10.6161 71.0666 11.5113 69.7024 12.3213V15.945C70.8534 15.0497 73.4539 14.1118 75.756 14.1118C77.9302 14.1118 78.8254 14.9218 78.8254 16.8402V17.8634H78.1433C71.4076 17.8634 68.3382 20.1228 68.3382 23.917C68.3382 27.7112 70.5976 29.8427 74.0507 29.8427C76.6512 29.8427 77.8023 29.0327 78.6123 28.1375H78.8254C78.8254 28.6064 79.0386 29.2885 79.1665 29.6296H83.5149C83.387 28.1375 83.3017 26.5601 83.3017 25.068C83.2591 25.068 83.2591 16.8829 83.2591 16.8829ZM78.8254 25.1959C78.2712 26.0059 77.2481 26.688 75.6281 26.688C73.795 26.688 72.8997 25.537 72.8997 23.9596C72.8997 21.7854 74.3918 21.0181 78.2712 21.0181H78.9533V25.2386H78.8254V25.1959ZM90.89 10.9571H86.7974V35.0011H91.2311V27.498C92.3821 29.2033 93.9595 30.0132 95.9205 30.0132C100.269 30.0132 103.21 26.6028 103.21 20.336C103.21 14.0692 100.354 10.6587 96.1337 10.6587C94.0874 10.6587 92.3821 11.554 91.1032 13.3871C91.1458 13.3445 90.89 10.9571 90.89 10.9571ZM94.6842 26.5601C92.4247 26.5601 91.1458 24.6417 91.1458 20.4212C91.1458 16.0729 92.3821 14.1545 94.8974 14.1545C97.2847 14.1545 98.521 16.0729 98.521 20.2933C98.521 24.6417 97.2847 26.5601 94.6842 26.5601ZM116.98 29.6296H122.011L114.934 19.6113L121.201 10.9571H116.767L110.5 19.6113V10.9571H106.067V29.6296H110.5V20.5065L116.98 29.6296ZM136.804 28.3933V24.7696C135.44 25.6649 133.18 26.4749 131.006 26.4749C127.809 26.4749 126.572 24.9828 126.316 21.7854H136.889V19.3981C136.889 12.9182 134.033 10.5308 129.599 10.5308C124.228 10.5308 121.627 14.6234 121.627 20.336C121.627 26.8159 124.824 30.0132 130.409 30.0132C133.521 29.9706 135.567 29.2885 136.804 28.3933ZM129.642 14.1545C131.816 14.1545 132.498 15.9876 132.498 18.2471V18.5881H126.316C126.444 15.6466 127.595 14.1545 129.642 14.1545ZM152.748 14.4955V10.9571H137.955V14.4955H143.198V29.6296H147.632V14.4955H152.748Z" fill="white"/>
</svg>
