<svg width="110" height="24" viewBox="0 0 110 24" fill="none" xmlns="http://www.w3.org/2000/svg">
<path d="M15.3937 18.0018C18.0878 17.6602 20.2642 15.4839 20.6079 12.7876C20.7279 11.8673 20.6349 10.9318 20.3361 10.0532C20.0372 9.17454 19.5405 8.37631 18.8843 7.72008C18.228 7.06384 17.4298 6.56713 16.5512 6.26828C15.6726 5.96943 14.737 5.87643 13.8168 5.99644C11.1205 6.34019 8.94414 8.51654 8.60254 11.2107C8.48252 12.1309 8.57553 13.0665 8.87438 13.9451C9.17323 14.8237 9.66993 15.6219 10.3262 16.2782C10.9824 16.9344 11.7806 17.4311 12.6593 17.73C13.5379 18.0288 14.4734 18.1218 15.3937 18.0018ZM15.7611 0.711328C18.3549 0.984381 20.7763 2.1396 22.6205 3.98382C24.4648 5.82804 25.62 8.24948 25.893 10.8433C26.6041 18.019 20.6229 24.0002 13.4451 23.2891C10.8517 23.0156 8.43073 21.8601 6.58694 20.016C4.74315 18.1718 3.58824 15.7506 3.31528 13.1571C2.60415 5.9814 8.58535 0.00020051 15.7611 0.711328ZM31.9816 1.16035H48.5911C49.2227 1.16035 49.5793 1.88222 49.1991 2.38495L37.7072 17.5463H46.7112C48.3526 17.5463 49.6438 19.0395 49.3044 20.7411C49.0551 21.9893 47.8842 22.8401 46.6124 22.8401H28.5742C27.9491 22.8401 27.5946 22.1246 27.9705 21.6283L39.471 6.45406H32.0805C30.8086 6.45406 29.6377 5.60113 29.3885 4.35505C29.0469 2.6535 30.3402 1.16035 31.9816 1.16035ZM104.063 1.2205C105.778 0.859569 107.286 2.15721 107.286 3.8072V22.0752C107.286 22.7133 106.549 23.0678 106.051 22.6725L91.7227 11.3052V20.1975C91.7227 21.8475 90.2146 23.1451 88.5001 22.7842C87.2712 22.5264 86.429 21.3813 86.429 20.1266V1.92304C86.429 1.28496 87.166 0.930467 87.6644 1.32578L101.994 12.6931V3.8781C101.994 2.62342 102.839 1.48046 104.065 1.2205H104.063ZM66.756 0.65332C75.528 0.65332 82.6392 5.73219 82.6392 11.997C82.6392 18.2618 75.528 23.3406 66.756 23.3406C57.984 23.3406 50.8727 18.2618 50.8727 11.997C50.8727 5.73219 57.984 0.65332 66.756 0.65332ZM66.756 5.94703C60.6953 5.94703 56.1664 9.14173 56.1664 11.997C56.1664 14.8522 60.6953 18.0469 66.756 18.0469C72.8167 18.0469 77.3455 14.8544 77.3455 11.997C77.3455 9.13958 72.8167 5.94703 66.756 5.94703Z" fill="white"/>
</svg>
