<svg width="254" height="37" viewBox="0 0 254 37" fill="none" xmlns="http://www.w3.org/2000/svg">
<path opacity="0.5" d="M52.0782 6.22412C46.5018 6.22412 41.5164 9.09152 41.5164 14.3781C41.5164 20.4405 50.3545 20.8617 50.3545 23.9055C50.3545 25.1907 48.8691 26.3355 46.3364 26.3355C42.7364 26.3355 40.0454 24.7299 40.0454 24.7299L38.8909 30.0705C38.8909 30.0705 41.9891 31.4259 46.1018 31.4259C52.2036 31.4259 57 28.4199 57 23.0415C57 16.6335 48.1218 16.2303 48.1218 13.3953C48.1218 12.3909 49.34 11.2857 51.8727 11.2857C54.7273 11.2857 57.0545 12.4539 57.0545 12.4539L58.1818 7.30052C58.1818 7.30772 55.6491 6.22592 52.08 6.22592L52.0782 6.22412ZM1.04182 6.61652L0.909088 7.39412C0.909088 7.39412 3.25272 7.82252 5.36727 8.67032C8.08909 9.64232 8.28545 10.2111 8.74182 11.9715L13.7345 31.0281H20.4255L30.7455 6.61472H24.0691L17.44 23.2125L14.7345 9.14552C14.4909 7.53452 13.2309 6.61472 11.6909 6.61472H1.04363L1.04182 6.61652ZM33.4327 6.61652L28.1964 31.0227H34.5654L39.7782 6.61472H33.4327V6.61652ZM68.9527 6.61652C67.42 6.61652 66.6018 7.43372 66.0036 8.85032L56.6764 31.0227H63.3545L64.6455 27.3255H72.7818L73.5691 31.0227H79.4673L74.3236 6.61472H68.9527V6.61652ZM69.8254 13.2099L71.8073 22.3719H66.4982L69.8254 13.2099Z" fill="white"/>
<g clip-path="url(#clip0_1_1401)">
<g opacity="0.5">
<path opacity="0.5" d="M114.269 34.9384C114.269 34.7582 114.31 34.5803 114.388 34.4175C114.466 34.2547 114.58 34.1111 114.722 33.997C114.863 33.8829 115.028 33.8012 115.205 33.7577C115.383 33.7142 115.567 33.71 115.747 33.7455C115.926 33.7811 116.095 33.8557 116.241 33.9639C116.388 34.0721 116.508 34.2111 116.593 34.3709C116.678 34.5307 116.726 34.7072 116.733 34.8875C116.74 35.0679 116.707 35.2476 116.635 35.4134C116.539 35.6352 116.379 35.824 116.174 35.9557C115.969 36.0875 115.73 36.1563 115.486 36.1534C114.736 36.2422 114.271 35.6946 114.271 34.9384H114.269ZM117.377 32.9803H116.627V33.5427C116.473 33.3406 116.274 33.1766 116.045 33.0635C115.816 32.9505 115.563 32.8916 115.307 32.8915C114.785 32.9346 114.299 33.1699 113.945 33.5505C113.591 33.931 113.395 34.4291 113.396 34.9458C113.397 35.4616 113.593 35.9586 113.946 36.3388C114.3 36.719 114.785 36.9549 115.306 37C115.542 37.0158 115.779 36.9725 115.993 36.8742C116.208 36.7759 116.395 36.6258 116.536 36.4376V36.8964H117.377V32.9803ZM146.491 34.9384C146.491 34.6986 146.564 34.4645 146.699 34.2653C146.834 34.066 147.026 33.9107 147.25 33.8186C147.475 33.7266 147.721 33.7021 147.96 33.748C148.198 33.794 148.418 33.9084 148.59 34.077C148.763 34.247 148.881 34.4637 148.929 34.6997C148.977 34.9357 148.953 35.1804 148.859 35.4029C148.766 35.6253 148.608 35.8155 148.406 35.9494C148.203 36.0832 147.964 36.1548 147.721 36.1549C146.866 36.2437 146.491 35.6946 146.491 34.9384ZM149.612 34.9384V31.3908H148.757V33.5412C148.621 33.3425 148.438 33.1795 148.223 33.066C148.009 32.9526 147.77 32.8922 147.527 32.89C147.26 32.8954 146.998 32.9527 146.753 33.0586C146.509 33.1645 146.289 33.3169 146.105 33.507C145.92 33.6972 145.776 33.9214 145.68 34.1668C145.584 34.4122 145.537 34.6739 145.544 34.9369C145.527 35.2042 145.567 35.472 145.66 35.7235C145.753 35.975 145.898 36.2048 146.086 36.3985C146.273 36.5922 146.499 36.7456 146.749 36.8491C147 36.9526 147.269 37.004 147.541 37C147.777 37.0162 148.014 36.9731 148.229 36.8748C148.445 36.7765 148.631 36.6261 148.772 36.4376V36.8964H149.627L149.612 34.9384ZM128.023 33.7218C128.284 33.7205 128.536 33.8156 128.731 33.9883C128.925 34.161 129.047 34.399 129.073 34.6557H127.018C127.043 34.4067 127.159 34.1751 127.343 34.0036C127.528 33.832 127.769 33.7319 128.023 33.7218ZM128.128 32.89C127.606 32.9335 127.12 33.1691 126.766 33.55C126.412 33.9309 126.217 34.4291 126.218 34.9458C126.219 35.4616 126.415 35.9586 126.768 36.3388C127.122 36.719 127.607 36.9549 128.128 37C128.712 36.9964 129.278 36.7982 129.734 36.4376L129.359 35.7834C129.031 36.0287 128.63 36.1589 128.219 36.1534C128.083 36.166 127.945 36.1518 127.815 36.1117C127.684 36.0715 127.563 36.0062 127.458 35.9195C127.353 35.8328 127.266 35.7264 127.204 35.6065C127.141 35.4866 127.102 35.3556 127.091 35.221H130.094V34.9384C130.11 34.4142 129.916 33.9049 129.554 33.5214C129.191 33.1378 128.69 32.9109 128.159 32.89H128.129H128.128ZM138.533 34.9384C138.534 34.6986 138.606 34.4645 138.741 34.2653C138.877 34.066 139.068 33.9107 139.293 33.8186C139.517 33.7266 139.764 33.7021 140.002 33.748C140.241 33.794 140.46 33.9084 140.633 34.077C140.805 34.2472 140.922 34.4639 140.97 34.6997C141.017 34.9354 140.993 35.1798 140.9 35.4019C140.807 35.6241 140.649 35.8142 140.447 35.9481C140.245 36.0821 140.007 36.1541 139.763 36.1549C138.923 36.2437 138.533 35.6946 138.533 34.9384ZM141.746 34.9384V32.9803H140.891V33.5427C140.754 33.3436 140.571 33.1803 140.356 33.0668C140.141 32.9534 139.902 32.8932 139.658 32.8915C139.137 32.935 138.651 33.1704 138.297 33.5509C137.943 33.9315 137.747 34.4294 137.749 34.9458C137.749 35.4617 137.945 35.9589 138.298 36.3392C138.652 36.7194 139.137 36.9552 139.658 37C139.895 37.016 140.132 36.9729 140.347 36.8746C140.562 36.7763 140.749 36.626 140.89 36.4376V36.8964H141.745V34.9384H141.746ZM133.714 34.9384C133.692 35.3498 133.802 35.7577 134.028 36.1041C134.254 36.4505 134.585 36.7178 134.974 36.8683C135.232 36.9674 135.508 37.0133 135.784 37C136.303 37.0277 136.814 36.8583 137.212 36.5264L136.837 35.8722C136.529 36.0942 136.165 36.2215 135.785 36.2422C135.623 36.2486 135.461 36.222 135.31 36.1641C135.159 36.1062 135.021 36.0182 134.906 35.9057C134.79 35.7931 134.7 35.6584 134.639 35.5098C134.579 35.3612 134.55 35.202 134.555 35.042C134.542 34.8791 134.564 34.7154 134.621 34.562C134.678 34.4087 134.769 34.2693 134.886 34.1537C135.002 34.038 135.143 33.9488 135.299 33.8921C135.454 33.8354 135.62 33.8127 135.785 33.8254C136.17 33.811 136.546 33.9435 136.835 34.1954L137.21 33.5442C137.05 33.3228 136.835 33.1461 136.585 33.0315C136.335 32.9168 136.06 32.8681 135.785 32.89C135.505 32.8733 135.224 32.9143 134.961 33.0104C134.697 33.1065 134.457 33.2556 134.255 33.4482C134.053 33.6408 133.894 33.8728 133.788 34.1293C133.682 34.3859 133.631 34.6614 133.639 34.9384H133.714ZM144.763 32.89C144.553 32.8746 144.344 32.9197 144.16 33.0198C143.976 33.12 143.826 33.2708 143.728 33.4539V32.9803H142.873V36.8964H143.728V34.7593C143.728 34.1081 144.013 33.7218 144.583 33.7218C144.774 33.7057 144.966 33.7415 145.138 33.8254L145.423 33.0691C145.188 32.9727 144.94 32.9128 144.688 32.8915H144.763V32.89ZM121.807 33.3503C121.324 33.0639 120.763 32.9345 120.202 32.9803C119.165 32.9803 118.594 33.4539 118.594 34.1954C118.594 34.9384 119.059 35.2196 119.914 35.3084L120.29 35.412C120.77 35.5008 120.95 35.5896 120.95 35.7834C120.95 35.9758 120.665 36.2422 120.005 36.2422C119.538 36.2492 119.079 36.1205 118.685 35.8722L118.309 36.5249C118.801 36.8757 119.401 37.0429 120.005 37C121.145 37 121.807 36.4376 121.807 35.6946C121.807 34.9532 121.327 34.6557 120.307 34.5669L119.93 34.4781C119.555 34.3745 119.27 34.3745 119.27 34.1081C119.27 33.8402 119.555 33.6315 120.02 33.6315C120.457 33.6448 120.883 33.7721 121.25 34.003L121.807 33.3518V33.3503ZM132.857 32.8915C132.648 32.8757 132.438 32.9205 132.254 33.0204C132.071 33.1203 131.92 33.271 131.822 33.4539V32.9803H130.965V36.8964H131.821V34.7593C131.821 34.1081 132.106 33.7218 132.676 33.7218C132.867 33.7054 133.06 33.7412 133.232 33.8254L133.517 32.9788C133.157 32.9788 132.977 32.89 132.782 32.89H132.857V32.8915ZM125.485 32.9803H124.075V31.7638H123.218V32.9803H122.468V33.8239H123.218V35.6058C123.218 36.5397 123.593 37.0888 124.643 37.0888C125.009 37.0918 125.368 36.9941 125.681 36.8076L125.396 36.0498C125.173 36.1914 124.909 36.2588 124.645 36.2422C124.165 36.2422 124.075 35.961 124.075 35.591V33.8254H125.485V32.9788V32.9803ZM112.663 36.8964V34.4781C112.677 34.275 112.648 34.0713 112.579 33.8794C112.511 33.6876 112.402 33.5118 112.262 33.3629C112.121 33.214 111.951 33.0952 111.762 33.0138C111.573 32.9325 111.369 32.8904 111.163 32.89C110.89 32.8863 110.621 32.9431 110.374 33.056C110.127 33.169 109.909 33.3354 109.736 33.5427C109.583 33.3396 109.383 33.1749 109.154 33.0618C108.924 32.9487 108.671 32.8904 108.415 32.8915C108.193 32.8747 107.971 32.9183 107.772 33.0174C107.574 33.1166 107.407 33.2676 107.29 33.4539V32.9803H106.418V36.8964H107.273V34.7593C107.256 34.6279 107.268 34.4945 107.308 34.3681C107.348 34.2417 107.415 34.1253 107.504 34.0268C107.594 33.9283 107.704 33.8501 107.828 33.7975C107.951 33.7448 108.084 33.719 108.218 33.7218C108.775 33.7218 109.06 34.1066 109.06 34.7593V36.8964H109.915V34.7593C109.897 34.6278 109.909 34.4943 109.949 34.3678C109.989 34.2412 110.057 34.1248 110.146 34.0262C110.236 33.9277 110.347 33.8495 110.47 33.797C110.593 33.7445 110.727 33.7188 110.861 33.7218C111.431 33.7218 111.716 34.1066 111.716 34.7593V36.8964H112.663ZM122.333 14.8355C122.328 12.5943 122.838 10.381 123.823 8.36159C124.808 6.34215 126.244 4.56888 128.023 3.1746C126.159 1.73044 123.973 0.747061 121.646 0.306585C119.319 -0.133892 116.919 -0.0186865 114.646 0.642581C112.373 1.30385 110.294 2.49199 108.582 4.10779C106.869 5.72359 105.573 7.72017 104.803 9.9308C104.028 12.1422 103.8 14.5038 104.137 16.8196C104.473 19.1355 105.365 21.3387 106.738 23.2464C108.109 25.1518 109.923 26.7063 112.027 27.7803C114.131 28.8543 116.465 29.4168 118.834 29.4209C122.162 29.4451 125.4 28.3575 128.023 26.3351C126.229 24.991 124.78 23.2506 123.792 21.2537C122.804 19.2568 122.304 17.059 122.333 14.837V14.8355ZM152.045 14.8355C152.058 17.5928 151.281 20.2976 149.804 22.6381C148.702 24.3878 147.236 25.887 145.503 27.0369C143.77 28.1867 141.81 28.961 139.752 29.3087C137.694 29.6564 135.585 29.5695 133.563 29.0539C131.541 28.5383 129.654 27.6056 128.024 26.3174C129.806 24.9449 131.243 23.1858 132.225 21.1767C133.206 19.1675 133.705 16.9622 133.684 14.7319C133.701 12.5062 133.2 10.3063 132.218 8.30224C131.237 6.29821 129.801 4.54378 128.023 3.1746C130.63 1.14705 133.846 0.0305213 137.167 0C141.115 0.0699096 144.88 1.6595 147.658 4.42964C150.437 7.20252 152.011 10.9356 152.045 14.8355Z" fill="white"/>
<path opacity="0.5" d="M128.023 4.86621C126.632 6.14477 125.517 7.68631 124.743 9.39902C123.969 11.1117 123.553 12.9606 123.518 14.8355C123.566 16.7124 123.989 18.5615 124.762 20.2772C125.535 21.9929 126.643 23.5414 128.023 24.8344C129.405 23.5435 130.515 21.9954 131.288 20.2792C132.061 18.5631 132.482 16.713 132.527 14.8355C132.497 12.9599 132.082 11.1097 131.308 9.39641C130.534 7.6831 129.416 6.1421 128.023 4.86621Z" fill="white"/>
</g>
</g>
<g opacity="0.5">
<path opacity="0.5" d="M219.443 10.3075L214.582 20.8077H214.09V8.04426H207.146V29.5109H212.905C214.466 29.5109 215.856 28.6109 216.52 27.2186L221.411 16.7459H221.902V29.5109H228.847V8.04426H223.002C221.498 8.04426 220.081 8.94279 219.443 10.3075ZM193.634 10.8579L190.77 20.8093H190.277L187.383 10.8579C187.145 10.0435 186.649 9.3288 185.971 8.82134C185.292 8.31389 184.468 8.04117 183.621 8.04426H176.765V29.5109H183.708V16.7475H184.201L188.194 29.5109H192.824L196.815 16.7475H197.308V29.5109H204.253V8.04426H197.395C195.659 8.04426 194.096 9.17586 193.633 10.8579H193.634ZM231.741 17.6169V29.5109H238.684V22.5496H246.151C247.684 22.554 249.18 22.0821 250.434 21.1987C251.688 20.3153 252.638 19.0639 253.153 17.6169H231.741ZM245.948 8.04272H230.496C231.452 13.1487 235.907 16.7475 241.26 16.7475H253.269C253.363 16.25 253.411 15.7449 253.413 15.2387C253.413 11.0895 250.086 8.04426 245.949 8.04426L245.948 8.04272Z" fill="white"/>
</g>
<defs>
<clipPath id="clip0_1_1401">
<rect width="48" height="37" fill="white" transform="translate(104)"/>
</clipPath>
</defs>
</svg>
