<svg width="206" height="24" viewBox="0 0 206 24" fill="none" xmlns="http://www.w3.org/2000/svg">
<path d="M6.36241 23.5611L0.0834961 0.414141H4.20227L9.02658 18.1922L14.197 0.412598L18.0364 0.414141L23.2248 18.2867L28.0708 0.418513L32.1895 0.412598L25.9079 23.557L21.1338 23.5521L16.1182 6.26628L11.098 23.5566L6.36241 23.5611Z" fill="white"/>
<path d="M35.03 0.426758H38.9506V23.5467H35.03V0.426758Z" fill="white"/>
<path d="M47.3329 19.9201H56.8777V23.5467H43.4933V0.426758H47.3329V19.9201Z" fill="white"/>
<path d="M68.9376 0.453414C72.1552 0.453414 74.8321 1.57344 76.9412 3.78676C79.0773 6.00007 80.1589 8.74679 80.1589 12.0001C80.1589 15.2268 79.0773 17.9734 76.9412 20.2134C74.8321 22.4268 72.1552 23.5467 68.9376 23.5467H59.7171V0.426758H68.9376V0.453414ZM68.9376 19.9467C71.1547 19.9467 72.9664 19.2001 74.3184 17.7068C75.7244 16.2134 76.4274 14.2934 76.4274 12.0267C76.4274 9.70678 75.7244 7.8401 74.3184 6.34679C72.9394 4.85339 71.1277 4.10673 68.9376 4.10673H63.5838V19.9467H68.9376Z" fill="white"/>
<path d="M100.844 16.942C100.844 18.8363 100.169 20.4104 98.7895 21.6644C97.4103 22.9184 95.7878 23.5587 93.7872 23.5587H83.7554V0.426758H93.0569C94.9769 0.426758 96.5986 1.06713 97.9238 2.26773C99.2763 3.49499 99.9252 5.01582 99.9252 6.83004C99.9252 8.85779 99.1135 10.4053 97.5458 11.5526C99.6003 12.6198 100.844 14.5407 100.844 16.942ZM87.6218 4.00199V10.0851H93.0835C94.7875 10.0851 96.0852 8.75107 96.0852 7.04356C96.0852 5.33596 94.7875 4.00199 93.0835 4.00199H87.6218ZM93.8138 19.9836C95.5983 19.9836 97.0049 18.5695 97.0049 16.7552C97.0049 14.9409 95.5983 13.5269 93.8138 13.5269H87.6218V20.0102H93.8138V19.9836Z" fill="white"/>
<path d="M108.334 19.9302H118.717V23.5587H104.494V0.426758H118.555V4.0553H108.334V10.0584H117.717V13.6603H108.334V19.9302Z" fill="white"/>
<path d="M135.537 23.5587L130.561 15.1277H126.018V23.5587H122.179V0.426758H131.561C133.671 0.426758 135.455 1.1471 136.888 2.61453C138.348 4.02864 139.106 5.78956 139.106 7.87061C139.106 10.8055 137.24 13.5002 134.455 14.5674L139.781 23.5587H135.537ZM126.018 4.0019V11.7392H131.535C133.589 11.7392 135.212 10.0317 135.212 7.87061C135.212 5.73616 133.563 4.0019 131.535 4.0019H126.018Z" fill="white"/>
<path d="M156.058 23.558L151.11 15.1226H146.567V23.558H142.728V0.414062H152.11C154.22 0.414062 156.004 1.13483 157.437 2.60303C158.897 4.01783 159.655 5.7796 159.655 7.86178C159.655 10.7982 157.789 13.4943 155.004 14.5621L160.33 23.558H156.058ZM146.567 3.99109V11.7325H152.084C154.138 11.7325 155.761 10.024 155.761 7.86178C155.761 5.72629 154.112 3.99109 152.084 3.99109H146.567Z" fill="white"/>
<path d="M163.143 0.416992H166.983V23.5584H163.143V0.416992Z" fill="white"/>
<path d="M175.365 19.9302H185.748V23.5586H171.525V0.426758H185.585V4.0553H175.365V10.0584H184.747V13.6603H175.365V19.9302Z" fill="white"/>
<path d="M188.425 18.2933L191.751 16.3733C192.697 18.9867 194.617 20.2666 197.564 20.2666C200.484 20.2666 201.917 19.04 201.917 17.2267C201.917 16.2667 201.512 15.5733 200.755 15.0933C199.997 14.5867 198.592 14.0266 196.591 13.44C194.346 12.7733 193.238 12.3466 191.669 11.3333C190.156 10.2667 189.398 8.74663 189.398 6.66669C189.398 4.61331 190.128 3.01337 191.615 1.81337C193.076 0.586629 194.86 0 196.942 0C200.701 0 203.594 1.92 205.108 5.09331L201.863 6.93334C200.89 4.8 199.24 3.70663 196.942 3.70663C194.698 3.70663 193.264 4.82666 193.264 6.58663C193.264 8.29337 194.4 9.09334 197.997 10.1866C198.889 10.48 199.538 10.6934 199.943 10.8533C200.376 10.9867 200.943 11.2267 201.674 11.52C202.431 11.8133 203.026 12.16 203.378 12.4533C204.622 13.4133 205.946 14.9866 205.784 17.2C205.784 19.28 205.027 20.96 203.486 22.1866C201.971 23.4134 199.971 24 197.483 24C192.94 23.9733 189.641 21.84 188.425 18.2933Z" fill="white"/>
</svg>
